<svg id="_150-Jahre-BOKU-web-E-Vektor" data-name="150-Jahre-BOKU-web-E-Vektor" xmlns="http://www.w3.org/2000/svg" viewBox="0 0 352 54">
  <path fill="#1d1d1b" d="M13.77,20.19c0,1.64-.64,3.31-3.3,3.31s-3.33-1.67-3.33-3.31V9.26h2V20.52c0,1,.35,1.45,1.37,1.45s1.34-.49,1.34-1.45V9.26h2Z"/>
  <path fill="#1d1d1b" d="M18,9.26h2.7L23,21h0V9.26H24.9V23.38H22.09l-2.31-12h0v12H18Z"/>
  <path fill="#1d1d1b" d="M29.16,9.26h2V23.38h-2Z"/>
  <path fill="#1d1d1b" d="M35,9.26H37l2,11.22h0l2-11.22h2L40.17,23.38H37.9Z"/>
  <path fill="#1d1d1b" d="M47,9.26h5.32V10.9H49v4.42h3.17V17H49v4.78h3.37v1.64H47Z"/>
  <path fill="#1d1d1b" d="M56.27,9.26h3c2.85,0,3.15.76,3.15,3.85,0,1.9-.26,2.72-1.86,3.21v0c1.33.13,1.78.82,1.78,2.15v3.07a9.49,9.49,0,0,0,.12,1.8H60.65a2.37,2.37,0,0,1-.24-1.27V18.92c0-1.33-.23-1.68-1.52-1.68h-.67v6.14H56.27Zm1.95,6.33h.51c1.55,0,1.76-.29,1.76-2.4s-.12-2.29-1.33-2.29h-.94Z"/>
  <path fill="#1d1d1b" d="M66.57,19.29h2v1.16c0,.93.35,1.52,1.13,1.52,1,0,1.29-.7,1.29-1.62,0-1.2-.06-1.59-2.09-3.6-1.25-1.25-2.29-2.39-2.29-4.3,0-2.31,1.08-3.31,3.21-3.31a3.33,3.33,0,0,1,2.29.78,2.27,2.27,0,0,1,.57,1.8v1.33H70.8V11.94c0-.81-.34-1.27-1.1-1.27s-1.17.44-1.17,1.54.19,1.55,2,3.42,2.27,2.68,2.27,4.39c0,2.21-.86,3.48-3.19,3.48-1.8,0-3-.77-3-2.53Z"/>
  <path fill="#1d1d1b" d="M76.9,9.26h1.95V23.38H76.9Z"/>
  <path fill="#1d1d1b" d="M82.74,9.26h6.65V10.9H87.05V23.38h-2V10.9H82.74Z"/>
  <path fill="#1d1d1b" d="M93.12,9.26h2l1.7,5.94h0l2-5.94h1.72l-2.71,8.33v5.79h-2V17.59Z"/>
  <path fill="#1d1d1b" d="M110.88,12.86c0-2,.64-3.72,3.3-3.72s3.33,1.31,3.33,3.5v7.14c0,2-.65,3.72-3.33,3.72-2.5,0-3.3-1.31-3.3-3.5Zm2,7.25c0,1.22.55,1.86,1.35,1.86s1.37-.64,1.37-1.86V12.7c0-1.39-.47-2-1.37-2s-1.35.64-1.35,2Z"/>
  <path fill="#1d1d1b" d="M121.74,9.26h5.32V10.9H123.7v4.42h3.17V17H123.7v6.42h-2Z"/>
  <path fill="#1d1d1b" d="M137.33,9.26H140L142.34,21h0V9.26h1.83V23.38H141.4l-2.31-12h0v12h-1.72Z"/>
  <path fill="#1d1d1b" d="M151.31,9.26h2.27l2.88,14.12h-2l-.65-3.6h-3l-.64,3.6h-2Zm-.21,8.88h2.48l-1.21-6.81h0Z"/>
  <path fill="#1d1d1b" d="M159,9.26h6.65V10.9h-2.35V23.38h-2V10.9H159Z"/>
  <path fill="#1d1d1b" d="M176.16,20.19c0,1.64-.65,3.31-3.31,3.31s-3.32-1.67-3.32-3.31V9.26h1.95V20.52c0,1,.35,1.45,1.37,1.45s1.35-.49,1.35-1.45V9.26h2Z"/>
  <path fill="#1d1d1b" d="M180.41,9.26h3c2.85,0,3.15.76,3.15,3.85,0,1.9-.26,2.72-1.86,3.21v0c1.33.13,1.78.82,1.78,2.15v3.07a9.49,9.49,0,0,0,.12,1.8h-1.84a2.37,2.37,0,0,1-.24-1.27V18.92c0-1.33-.23-1.68-1.52-1.68h-.67v6.14h-2Zm2,6.33h.51c1.55,0,1.76-.29,1.76-2.4s-.12-2.29-1.33-2.29h-.94Z"/>
  <path fill="#1d1d1b" d="M193.69,9.26H196l2.88,14.12h-2l-.64-3.6h-3.05l-.65,3.6h-2Zm-.21,8.88H196l-1.21-6.81h0Z"/>
  <path fill="#1d1d1b" d="M202.84,9.26h1.95V21.74h3.29v1.64h-5.24Z"/>
  <path fill="#1d1d1b" d="M218.42,9.26h3c2.85,0,3.15.76,3.15,3.85,0,1.9-.26,2.72-1.86,3.21v0c1.33.13,1.78.82,1.78,2.15v3.07a10.34,10.34,0,0,0,.11,1.8h-1.83a2.37,2.37,0,0,1-.24-1.27V18.92c0-1.33-.23-1.68-1.53-1.68h-.66v6.14h-2Zm2,6.33h.51c1.54,0,1.76-.29,1.76-2.4s-.12-2.29-1.33-2.29h-.94Z"/>
  <path fill="#1d1d1b" d="M228.85,9.26h5.32V10.9h-3.36v4.42H234V17h-3.17v4.78h3.36v1.64h-5.32Z"/>
  <path fill="#1d1d1b" d="M238,19.29H240v1.16c0,.93.36,1.52,1.14,1.52,1,0,1.29-.7,1.29-1.62,0-1.2-.06-1.59-2.09-3.6C239,15.5,238,14.36,238,12.45c0-2.31,1.07-3.31,3.21-3.31a3.35,3.35,0,0,1,2.29.78,2.27,2.27,0,0,1,.56,1.8v1.33h-1.84V11.94c0-.81-.33-1.27-1.09-1.27s-1.18.44-1.18,1.54.2,1.55,2,3.42,2.27,2.68,2.27,4.39c0,2.21-.86,3.48-3.19,3.48-1.8,0-3-.77-3-2.53Z"/>
  <path fill="#1d1d1b" d="M248.32,12.86c0-2,.65-3.72,3.31-3.72s3.32,1.31,3.32,3.5v7.14c0,2-.64,3.72-3.32,3.72-2.51,0-3.31-1.31-3.31-3.5Zm2,7.25c0,1.22.55,1.86,1.35,1.86s1.37-.64,1.37-1.86V12.7c0-1.39-.47-2-1.37-2s-1.35.64-1.35,2Z"/>
  <path fill="#1d1d1b" d="M265.78,20.19c0,1.64-.65,3.31-3.31,3.31s-3.32-1.67-3.32-3.31V9.26h2V20.52c0,1,.36,1.45,1.37,1.45s1.35-.49,1.35-1.45V9.26h2Z"/>
  <path fill="#1d1d1b" d="M270,9.26h3c2.86,0,3.15.76,3.15,3.85,0,1.9-.25,2.72-1.86,3.21v0c1.33.13,1.78.82,1.78,2.15v3.07a9.49,9.49,0,0,0,.12,1.8h-1.84a2.47,2.47,0,0,1-.23-1.27V18.92c0-1.33-.24-1.68-1.53-1.68H272v6.14h-2Zm2,6.33h.51c1.54,0,1.76-.29,1.76-2.4s-.12-2.29-1.33-2.29H272Z"/>
  <path fill="#1d1d1b" d="M280.33,12.86c0-2,.65-3.72,3.31-3.72,1.94,0,2.84,1,2.84,2.56v1.41h-1.84v-1c0-.9-.31-1.46-1.14-1.46-1,0-1.21.72-1.21,2.42V20c0,1.66.53,1.95,1.16,1.95s1.19-.51,1.19-1.68v-1h1.84v1.57c0,1.48-.61,2.62-2.88,2.62-2.46,0-3.27-1.31-3.27-3.5Z"/>
  <path fill="#1d1d1b" d="M290.47,9.26h5.33V10.9h-3.37v4.42h3.17V17h-3.17v4.78h3.37v1.64h-5.33Z"/>
  <path fill="#1d1d1b" d="M299.62,19.29h2v1.16c0,.93.35,1.52,1.13,1.52,1,0,1.29-.7,1.29-1.62,0-1.2-.06-1.59-2.09-3.6-1.25-1.25-2.29-2.39-2.29-4.3,0-2.31,1.08-3.31,3.21-3.31a3.35,3.35,0,0,1,2.29.78,2.27,2.27,0,0,1,.56,1.8v1.33h-1.83V11.94c0-.81-.34-1.27-1.1-1.27s-1.17.44-1.17,1.54.19,1.55,2,3.42,2.27,2.68,2.27,4.39c0,2.21-.86,3.48-3.19,3.48-1.8,0-3-.77-3-2.53Z"/>
  <path fill="#1d1d1b" d="M319.1,9.26h2.27l2.87,14.12h-1.95l-.65-3.6h-3.05l-.65,3.6H316Zm-.22,8.88h2.49l-1.21-6.81h0Z"/>
  <path fill="#1d1d1b" d="M328.24,9.26h2.7L333.25,21h0V9.26h1.84V23.38h-2.82l-2.31-12h0v12h-1.72Z"/>
  <path fill="#1d1d1b" d="M339.41,9.26h3.15c3.17,0,3.43,1.05,3.43,5.16v4.21c0,3.62-.65,4.75-3.74,4.75h-2.84Zm2,12.48h.94c1.45,0,1.72-.77,1.72-3.19V13.7c0-2.1-.22-2.8-1.88-2.8h-.78Z"/>
  <path fill="#1d1d1b" d="M86.81,33.7h2V46.18h3.28v1.65H86.81Z"/>
  <path fill="#1d1d1b" d="M96,33.7h2V47.83H96Z"/>
  <path fill="#1d1d1b" d="M102.2,33.7h5.32v1.65h-3.37v4.42h3.17v1.64h-3.17v6.42h-2Z"/>
  <path fill="#1d1d1b" d="M111.46,33.7h5.32v1.65h-3.37v4.42h3.17v1.64h-3.17v4.77h3.37v1.65h-5.32Z"/>
  <path fill="#1d1d1b" d="M126.83,43.74h2v1.15c0,.94.36,1.53,1.14,1.53,1,0,1.29-.71,1.29-1.63,0-1.19-.06-1.58-2.09-3.6-1.26-1.25-2.29-2.38-2.29-4.3,0-2.31,1.07-3.31,3.21-3.31a3.32,3.32,0,0,1,2.28.79,2.23,2.23,0,0,1,.57,1.8V37.5h-1.84V36.38c0-.8-.33-1.27-1.09-1.27s-1.18.45-1.18,1.55.2,1.54,2,3.42,2.27,2.68,2.27,4.38c0,2.21-.86,3.48-3.19,3.48-1.8,0-3-.76-3-2.52Z"/>
  <path fill="#1d1d1b" d="M137.07,37.3c0-2,.65-3.72,3.31-3.72,1.93,0,2.83,1,2.83,2.57v1.41h-1.83v-1c0-.9-.32-1.47-1.14-1.47-1,0-1.21.72-1.21,2.43v6.92c0,1.66.53,2,1.15,2s1.2-.51,1.2-1.68v-1h1.83v1.56c0,1.49-.6,2.62-2.87,2.62-2.47,0-3.27-1.31-3.27-3.5Z"/>
  <path fill="#1d1d1b" d="M147.18,33.7h2V47.83h-2Z"/>
  <path fill="#1d1d1b" d="M153.38,33.7h5.32v1.65h-3.37v4.42h3.17v1.64h-3.17v4.77h3.37v1.65h-5.32Z"/>
  <path fill="#1d1d1b" d="M162.64,33.7h2.7l2.31,11.74h0V33.7h1.84V47.83h-2.81l-2.31-12h0v12h-1.72Z"/>
  <path fill="#1d1d1b" d="M173.68,37.3c0-2,.64-3.72,3.3-3.72,1.94,0,2.84,1,2.84,2.57v1.41H178v-1c0-.9-.31-1.47-1.13-1.47-1,0-1.21.72-1.21,2.43v6.92c0,1.66.52,2,1.15,2s1.19-.51,1.19-1.68v-1h1.84v1.56c0,1.49-.61,2.62-2.87,2.62-2.47,0-3.27-1.31-3.27-3.5Z"/>
  <path fill="#1d1d1b" d="M183.82,33.7h5.32v1.65h-3.37v4.42h3.17v1.64h-3.17v4.77h3.37v1.65h-5.32Z"/>
  <path fill="#1d1d1b" d="M193,43.74h2v1.15c0,.94.35,1.53,1.13,1.53,1,0,1.3-.71,1.3-1.63,0-1.19-.06-1.58-2.1-3.6C194,39.94,193,38.81,193,36.89c0-2.31,1.08-3.31,3.21-3.31a3.33,3.33,0,0,1,2.29.79,2.27,2.27,0,0,1,.57,1.8V37.5h-1.84V36.38c0-.8-.33-1.27-1.1-1.27s-1.17.45-1.17,1.55.2,1.54,2,3.42,2.26,2.68,2.26,4.38c0,2.21-.86,3.48-3.18,3.48-1.8,0-3-.76-3-2.52Z"/>
  <path fill="#1d1d1b" d="M203.43,45.52h2.07L204.41,49H203Z"/>
  <path fill="#1d1d1b" d="M215.65,33.7h2l2,11.23h0l2-11.23h1.95L220.8,47.83h-2.27Z"/>
  <path fill="#1d1d1b" d="M227.6,33.7h2V47.83h-2Z"/>
  <path fill="#1d1d1b" d="M233.8,33.7h5.32v1.65h-3.37v4.42h3.17v1.64h-3.17v4.77h3.37v1.65H233.8Z"/>
  <path fill="#1d1d1b" d="M243.06,33.7h2.69l2.31,11.74h0V33.7h1.84V47.83h-2.82l-2.3-12h0v12h-1.72Z"/>
  <path fill="#1d1d1b" d="M254.23,33.7h2.7l2.31,11.74h0V33.7h1.83V47.83H258.3l-2.31-12h0v12h-1.72Z"/>
  <path fill="#1d1d1b" d="M268.21,33.7h2.27l2.88,14.13h-2l-.64-3.6h-3.05l-.65,3.6h-2ZM268,42.58h2.48l-1.21-6.8h0Z"/>
</svg>
